<svg xmlns="http://www.w3.org/2000/svg" width="136" height="47" fill="none" viewBox="0 0 136 47">
    <path fill="#ED1C24" d="M19.7 35.533c15.15-5.169 31.398-7.979 48.292-7.979 16.862 0 33.046 2.778 48.163 7.914l8.883-26.1C107.143 3.295 87.955 0 67.992 0 47.997 0 28.745 3.327 10.817 9.432l8.883 26.1z"/>
    <path fill="url(#paint0_linear)" d="M96.391 37.988c9.885 2.002 19.414 5.039 28.458 8.98l-.323-15.02 11.339-10.176c-4.329-1.906-8.754-3.618-13.277-5.136l-6.396 18.832c-5.814-1.97-11.79-3.586-17.895-4.845l-1.906 7.365z"/>
    <path fill="url(#paint1_linear)" d="M37.568 30.655c-6.105 1.26-12.081 2.907-17.896 4.878l-6.396-18.865C8.754 18.218 4.33 19.93 0 21.836L11.306 31.98 11.016 47c9.044-3.972 18.573-7.009 28.458-9.011l-1.906-7.333z"/>
    <path fill="#000" d="M54.078 33.336v.775h-2.293v1.325h2.197v.775h-2.197v1.421h2.326v.776h-3.295v-5.04h3.262v-.032zM57.21 33.272c.485 0 .97.129 1.422.355v.872c-.517-.323-.97-.485-1.39-.485-.258 0-.451.033-.58.13-.13.097-.194.226-.194.387 0 .194.129.356.387.517.065.032.356.194.84.388.42.194.71.42.904.646.194.226.259.517.259.872 0 .42-.162.775-.452 1.034-.323.258-.711.387-1.195.387-.324 0-.614-.032-.84-.097-.227-.064-.485-.194-.776-.355v-.969c.55.452 1.034.678 1.519.678.226 0 .42-.064.581-.161.161-.097.226-.226.226-.42 0-.226-.13-.42-.388-.582-.226-.129-.484-.258-.807-.42-.388-.193-.678-.387-.872-.646-.194-.226-.291-.516-.291-.84 0-.42.162-.775.485-1 .258-.195.646-.291 1.163-.291zM64.478 33.336v.775h-1.776v4.264h-.97v-4.264h-1.776v-.775h4.522zM65.576 37.31c.162 0 .29.064.388.16.097.098.161.227.161.389 0 .161-.064.29-.161.387-.097.097-.227.162-.388.162s-.29-.065-.388-.162c-.097-.097-.161-.226-.161-.388 0-.161.064-.29.161-.387.097-.097.227-.162.388-.162zM70.841 33.336v5.04h-.937v-5.04h.937zM74.686 33.272c.323 0 .614.064.84.226.258.161.452.355.581.613.13.259.194.582.194.937 0 .517-.162 1.098-.484 1.712-.324.614-.743 1.163-1.293 1.68h-1.098c.29-.259.581-.582.904-1.002.324-.42.55-.807.679-1.13-.194.065-.388.13-.582.13-.387 0-.743-.13-1-.42-.26-.291-.389-.647-.389-1.1 0-.29.065-.548.194-.807.13-.258.323-.452.582-.581.29-.194.581-.258.872-.258zm-.679 1.582c0 .226.065.42.194.55.13.129.291.226.517.226.194 0 .355-.065.485-.227.129-.161.194-.323.194-.516 0-.227-.065-.42-.194-.582-.13-.161-.291-.226-.517-.226-.194 0-.356.065-.485.226-.129.13-.194.323-.194.55zM79.466 33.336v5.04h-.937v-5.04h.937zM83.054 33.272c.484 0 .872.129 1.13.42.291.258.42.645.42 1.098 0 .355-.097.71-.323 1.13-.226.388-.581.937-1.098 1.615h1.712v.873h-3.263v-.097c.388-.453.711-.905.97-1.26.258-.388.484-.678.645-.937.162-.258.259-.452.323-.614.065-.161.097-.355.097-.549 0-.226-.064-.42-.226-.581-.161-.162-.323-.226-.549-.226-.388 0-.775.226-1.195.646v-1.002c.452-.355.904-.516 1.357-.516z"/>
    <path fill="#fff" d="M85.078 13.535l8.496.904c-.097.872-.226 1.648-.356 2.358-.161.71-.355 1.357-.646 1.938-.387.84-.904 1.55-1.486 2.165-.581.613-1.26 1.098-2.035 1.453-.743.356-1.55.614-2.422.776-.872.129-1.777.161-2.714.064-1.292-.13-2.422-.484-3.424-1.001-1.001-.55-1.841-1.228-2.52-2.068-.678-.84-1.162-1.808-1.485-2.94-.323-1.13-.388-2.325-.259-3.617.13-1.292.485-2.423 1.002-3.456.517-1.034 1.227-1.874 2.067-2.552.84-.679 1.841-1.163 2.94-1.486 1.13-.323 2.358-.388 3.682-.259 1.712.194 3.198.711 4.393 1.583 1.228.872 2.132 2.132 2.714 3.78l-4.232 1.26c-.29-.937-.71-1.648-1.26-2.1-.549-.452-1.227-.743-2.002-.808-.647-.064-1.228 0-1.777.162-.55.194-1.034.484-1.454.872-.42.42-.775.904-1.034 1.518-.29.614-.452 1.292-.549 2.068-.064.71-.064 1.356.065 1.97.13.614.323 1.163.646 1.647.323.485.743.873 1.26 1.163.517.291 1.13.485 1.841.55.42.032.84.032 1.228 0 .387-.065.775-.162 1.098-.356.323-.162.614-.42.872-.743.226-.323.42-.71.55-1.195l-3.522-.388.323-3.262zM105.204 16.894l8.302 1.97c-.194.84-.42 1.616-.646 2.294-.227.678-.55 1.292-.905 1.841-.484.776-1.066 1.422-1.744 1.939-.679.516-1.389.936-2.197 1.195-.807.258-1.647.42-2.519.452-.873.032-1.777-.065-2.681-.29-1.26-.292-2.359-.776-3.295-1.422-.937-.646-1.68-1.454-2.262-2.39-.549-.937-.936-1.971-1.098-3.102-.161-1.13-.097-2.358.194-3.617.29-1.26.775-2.358 1.421-3.295.646-.937 1.454-1.712 2.358-2.261.937-.55 1.971-.937 3.101-1.099 1.163-.161 2.391-.097 3.683.226 1.68.388 3.069 1.099 4.167 2.132 1.098 1.034 1.841 2.39 2.196 4.103l-4.36.71c-.162-.969-.485-1.712-1.002-2.26-.484-.518-1.13-.873-1.873-1.067-.614-.161-1.228-.161-1.809-.064-.582.097-1.098.355-1.551.678-.452.355-.872.808-1.227 1.357-.356.549-.614 1.227-.808 1.97-.161.679-.226 1.325-.194 1.97.033.614.194 1.196.453 1.713.258.516.613.936 1.098 1.324.484.355 1.066.614 1.744.775.42.097.808.162 1.228.162.42 0 .775-.065 1.13-.194.356-.13.679-.355.937-.614.291-.29.517-.646.678-1.098l-3.456-.808.937-3.23zM37.694 19.834c-.097-.485-.29-.937-.485-1.325-.226-.387-.484-.743-.84-1.033-.355-.291-.742-.485-1.227-.614-.484-.13-1.034-.194-1.647-.162.517-.517.84-1.066 1.033-1.68.162-.613.162-1.324-.032-2.131-.323-1.325-.937-2.294-1.873-2.81-.937-.55-2.132-.647-3.618-.291l-6.59 1.518-.485 3.618 1.583-.388 2.972 12.824 6.751-1.55c.84-.194 1.615-.485 2.23-.84.645-.356 1.162-.808 1.55-1.292.387-.517.646-1.099.775-1.745.097-.646.097-1.356-.097-2.1zM27.68 13.47l.776-.194c1.324-.29 2.1.065 2.325 1.099.227 1.033-.29 1.712-1.615 2.002l-.775.194-.71-3.1zm5.33 8.528c-.387.388-1.13.678-2.164.937l-.904.226-.808-3.424.904-.226c1.066-.259 1.842-.291 2.359-.13.516.162.84.55 1 1.131.13.614 0 1.098-.387 1.486zM55.782 22.289l-6.008-6.106c1.13-.42 1.97-1.066 2.488-1.905.516-.84.678-1.906.516-3.166-.096-.71-.29-1.324-.581-1.906-.29-.581-.71-1.066-1.195-1.486-.517-.42-1.099-.71-1.842-.904-.71-.194-1.518-.226-2.454-.097l-7.01.872-.84 3.553 1.648-.226 1.615 13.05 4.264-.517-.776-6.33 4.846 5.814 5.33-.646zm-7.849-8.819c-.42.42-1.034.646-1.873.775l-.808.097-.485-4.07.808-.097c.84-.097 1.518 0 2.003.291.484.29.775.775.872 1.421.064.646-.097 1.195-.517 1.583zM68.221 5.362l-6.266.065-1.26 3.424h1.615l-4.845 13.244 4.586-.065.937-2.875 6.138-.097 1.033 2.875 4.587-.064-6.525-16.507zm-4.134 10.466l1.873-5.524 2.003 5.492-3.876.032zM119.868 14.051c0 1.002-.775 1.777-1.809 1.777-1.001 0-1.809-.775-1.809-1.777 0-.969.808-1.776 1.809-1.776 1.034 0 1.809.775 1.809 1.776zm-3.166 0c0 .776.582 1.422 1.389 1.422.775 0 1.357-.614 1.357-1.39 0-.774-.582-1.42-1.357-1.42-.807-.033-1.389.613-1.389 1.388zm1.099.905h-.42v-1.777c.161-.032.387-.064.678-.064.323 0 .484.064.614.129.097.065.161.226.161.388 0 .193-.161.355-.355.42v.032c.161.064.258.194.323.42.064.258.097.387.129.452h-.452c-.065-.065-.097-.226-.129-.42-.033-.194-.13-.29-.356-.29h-.193v.71zm0-1.002h.193c.226 0 .42-.064.42-.258 0-.161-.129-.258-.387-.258-.097 0-.194 0-.226.032v.484z"/>
    <path fill="url(#paint2_linear)" d="M104.754 39.247c.161.033.323.065.484.13v-.065c-.161-.032-.323-.065-.484-.065z"/>
    <defs>
        <linearGradient id="paint0_linear" x1="131.902" x2="83.291" y1="34.947" y2="18.387" gradientUnits="userSpaceOnUse">
            <stop stop-color="#ED1C24"/>
            <stop offset=".046" stop-color="#E71C23"/>
            <stop offset=".103" stop-color="#DA1A21"/>
            <stop offset=".166" stop-color="#C6171D"/>
            <stop offset=".233" stop-color="#AB1116"/>
            <stop offset=".303" stop-color="#890406"/>
            <stop offset=".32" stop-color="#810101"/>
        </linearGradient>
        <linearGradient id="paint1_linear" x1="6.199" x2="44.151" y1="33.684" y2="22.007" gradientUnits="userSpaceOnUse">
            <stop offset=".012" stop-color="#ED1C24"/>
            <stop offset=".057" stop-color="#E71C23"/>
            <stop offset=".112" stop-color="#DA1A21"/>
            <stop offset=".172" stop-color="#C6171D"/>
            <stop offset=".236" stop-color="#AB1116"/>
            <stop offset=".303" stop-color="#890406"/>
            <stop offset=".32" stop-color="#810101"/>
        </linearGradient>
        <linearGradient id="paint2_linear" x1="104.743" x2="105.228" y1="39.302" y2="39.302" gradientUnits="userSpaceOnUse">
            <stop stop-color="#ED1C24"/>
            <stop offset=".236" stop-color="#E91C24"/>
            <stop offset=".404" stop-color="#E11B22"/>
            <stop offset=".55" stop-color="#D41920"/>
            <stop offset=".684" stop-color="#C3161D"/>
            <stop offset=".81" stop-color="#AD1116"/>
            <stop offset=".928" stop-color="#92080B"/>
            <stop offset="1" stop-color="#810101"/>
        </linearGradient>
    </defs>
</svg>
