<svg width="101" height="40" viewBox="0 0 101 40" fill="none" xmlns="http://www.w3.org/2000/svg">
<metadata><?xpacket begin="﻿" id="W5M0MpCehiHzreSzNTczkc9d"?>
<x:xmpmeta xmlns:x="adobe:ns:meta/" x:xmptk="Adobe XMP Core 8.0-c001 1.000000, 0000/00/00-00:00:00        ">
   <rdf:RDF xmlns:rdf="http://www.w3.org/1999/02/22-rdf-syntax-ns#">
      <rdf:Description rdf:about=""
            xmlns:tiff="http://ns.adobe.com/tiff/1.0/"
            xmlns:dc="http://purl.org/dc/elements/1.1/"
            xmlns:ns1="http://www.accor.com/ns/dam/v1.0">
         <tiff:ImageLength>40</tiff:ImageLength>
         <tiff:ImageWidth>101</tiff:ImageWidth>
         <dc:format>image/svg+xml</dc:format>
         <dc:modified>2024-02-16T05:40:13.899Z</dc:modified>
         <ns1:dmUrlMaster>https://m.ahstatic.com/is/generic/accorhotelsuat/ibis-family-logo</ns1:dmUrlMaster>
      </rdf:Description>
   </rdf:RDF>
</x:xmpmeta>
                                                                                                    
                                                                                                    
                                                                                                    
                                                                                                    
                                                                                                    
                                                                                                    
                                                                                                    
                                                                                                    
                                                                                                    
                                                                                                    
                                                                                                    
                                                                                                    
                                                                                                    
                                                                                                    
                                                                                                    
                                                                                                    
                                                                                                    
                                                                                                    
                                                                                 
<?xpacket end="w"?></metadata>
<g id="ibis-family-logo-vectors">
<path id="Vector" d="M100.109 3.21232C99.8655 2.94806 99.4996 2.82609 99.1541 2.92773C97.8531 3.2733 95.8407 3.53757 93.1777 3.80183C90.4944 4.06609 87.12 4.22871 82.0788 3.80183C77.0375 3.37494 73.724 2.66347 71.1424 1.952C68.5608 1.24053 66.6093 0.651024 65.3897 0.0818466C65.0644 -0.0604477 64.6782 -0.0197922 64.3936 0.224141C64.109 0.447746 64.0074 0.833974 64.0887 1.17955C64.292 1.97233 64.4749 3.00904 64.6375 4.33035C65.471 4.1474 66.2841 3.92379 67.0972 3.65953C67.4428 3.53757 67.8087 3.61888 68.0729 3.86281C68.3169 4.12707 68.3982 4.49297 68.2965 4.83854C67.8493 6.09886 67.4224 8.09098 66.9142 10.7336C66.4264 13.3762 65.9995 16.7303 65.9995 21.7919C65.9995 26.8535 66.4264 30.2076 66.9142 32.8502C67.0972 33.8056 67.2598 34.6797 67.4224 35.4521C67.707 35.4115 68.0119 35.3912 68.3169 35.3505C71.0001 35.0862 74.3745 34.9236 79.4158 35.3505C84.4571 35.7774 87.7705 36.4889 90.3521 37.2003C92.9338 37.9118 94.8852 38.5013 96.1049 39.0705C96.4302 39.2128 96.8164 39.1721 97.101 38.9282C97.3856 38.7046 97.4872 38.3184 97.4059 37.9728C97.0603 36.6718 96.8164 34.6594 96.5318 31.9964C96.2675 29.3132 96.1049 25.9388 96.5318 20.8975C96.9587 15.8562 97.6701 12.5428 98.3816 9.96114C99.0931 7.37951 99.6826 5.42805 100.252 4.20838C100.394 3.88314 100.353 3.49691 100.109 3.21232ZM85.3312 18.8647C85.9004 19.068 86.6525 19.2509 87.1404 19.2916C87.9535 19.3526 88.3194 19.1493 88.3397 18.7021C88.3804 18.2345 87.8925 17.9499 87.303 17.6247C86.4695 17.1572 85.4328 16.588 85.5548 15.2057C85.6564 14.0877 86.4899 13.2136 88.1771 13.3559C88.7463 13.3965 89.3154 13.5388 89.844 13.7421C90.0269 13.8234 90.1489 14.047 90.1285 14.2503L90.0472 15.165C89.5187 14.9414 88.9495 14.7991 88.3804 14.7382C87.5469 14.6772 87.3436 14.9008 87.3233 15.2464C87.2827 15.6123 87.7299 15.8562 88.2584 16.1408C89.1122 16.6083 90.2505 17.2181 90.1082 18.7427C89.9863 20.0844 88.8479 20.8162 87.303 20.6739C86.6728 20.6332 86.063 20.4909 85.4735 20.2673C85.2905 20.1657 85.1889 19.9624 85.2092 19.7591L85.2905 18.8444L85.3312 18.8647ZM83.0748 10.2661L84.4368 10.388C84.762 10.4083 84.8637 10.5913 84.8433 10.8962L84.7417 12.0956L83.3797 11.9736C83.0545 11.9533 82.9529 11.7703 82.9732 11.4654L83.0748 10.2661ZM82.8512 12.99L84.2132 13.1119C84.5384 13.1323 84.64 13.3152 84.6197 13.6201L84.0505 20.3283L82.6886 20.2063C82.3633 20.186 82.2617 20.003 82.282 19.6981L82.8512 12.99ZM75.7975 9.65622L77.1594 9.77819C77.4847 9.79852 77.5863 9.98147 77.566 10.2864L77.3221 13.1323C77.8506 12.6851 78.5214 12.4615 79.2125 12.5021C81.2047 12.6647 81.6925 14.2909 81.5096 16.2627C81.3063 18.6411 80.1883 20.0844 77.5457 19.8608C76.8139 19.7998 76.1024 19.6371 75.4112 19.3932C75.086 19.2712 74.964 19.1696 75.0047 18.8647L75.7771 9.65622H75.7975ZM72.5857 9.39196L73.9476 9.51393C74.2729 9.53425 74.3745 9.7172 74.3542 10.0221L74.2526 11.2215L72.8906 11.0995C72.5654 11.0792 72.4637 10.8962 72.4841 10.5913L72.5857 9.39196ZM71.9149 23.7637C71.4677 25.4102 70.5936 26.3656 68.8454 26.2233C68.4998 26.203 68.1542 26.1217 67.8087 26.0201C67.6054 25.9591 67.5647 25.9388 67.6257 25.7151L69.3739 19.3322L69.7601 19.3729C69.9228 19.3729 69.9634 19.4542 69.9228 19.6168L69.3739 21.6496C69.8414 21.3447 70.3496 21.1821 70.7968 21.2227C72.0368 21.3244 72.3418 22.2391 71.9149 23.784V23.7637ZM71.7929 18.824L72.3621 12.1159L73.724 12.2378C74.0493 12.2582 74.1509 12.4411 74.1306 12.746L73.5614 19.4542L72.1995 19.3322C71.8742 19.3119 71.7726 19.129 71.7929 18.824ZM75.5332 26.7315L75.1673 26.6909C75.0047 26.6909 74.964 26.6096 75.0047 26.4469L75.0657 26.264C74.5778 26.5486 74.0696 26.7315 73.5817 26.6909C73.0532 26.6502 72.6873 26.447 72.5044 26.0404C72.3418 25.7152 72.3824 25.3086 72.5247 24.8004L73.4191 21.548L73.8257 21.5886C73.9883 21.5886 74.029 21.6699 73.9883 21.8122L73.1549 24.8411C72.9313 25.6948 73.1955 26.1217 73.8663 26.1827C74.3136 26.2233 74.7608 26.0201 75.208 25.7558L76.2853 21.7919L76.6716 21.8325C76.8342 21.8325 76.8748 21.9139 76.8342 22.0765L75.5535 26.7315H75.5332ZM79.6598 27.0771C79.4971 27.0771 79.4565 26.9958 79.4971 26.8332L79.5581 26.6502C79.0906 26.9551 78.5824 27.1178 78.1352 27.0771C76.8952 26.9755 76.5903 26.0607 77.0171 24.5158C77.4644 22.8693 78.3384 21.9139 80.0866 22.0562C80.3306 22.0562 80.5542 22.1171 80.7778 22.1781L81.286 20.3283L81.6722 20.3689C81.8348 20.3689 81.8755 20.4503 81.8348 20.6129L80.046 27.1178L79.6598 27.0771ZM84.6197 27.3007C84.2335 28.7033 83.4814 29.2928 82.2007 29.1709C81.8551 29.1709 81.5299 29.0692 81.2047 28.9473C81.0827 28.8863 81.0217 28.8253 81.0624 28.683L81.1437 28.3781C81.4892 28.5407 81.8755 28.622 82.2617 28.6627C83.2578 28.744 83.705 28.3578 84.0099 27.2397L84.1115 26.8942C83.644 27.1991 83.1358 27.3617 82.6683 27.321C81.4283 27.2194 81.1233 26.325 81.5299 24.8004C81.9568 23.2352 82.8309 22.2798 84.5791 22.4221C84.9246 22.4424 85.2702 22.5237 85.6158 22.6253C85.7987 22.6863 85.8597 22.727 85.7987 22.9302L84.5994 27.3007H84.6197ZM89.8236 25.1866C89.7423 25.4509 89.6204 25.5322 89.3561 25.5119L86.6932 25.2883C86.3476 26.6502 86.6525 27.2194 87.7095 27.3007C88.1364 27.3414 88.5836 27.3007 89.0105 27.2194L88.9292 27.5243C88.8886 27.6463 88.7869 27.7479 88.6446 27.7479C88.2584 27.8292 87.8518 27.8292 87.4656 27.7886C86.1037 27.6666 85.5751 26.8738 86.063 25.1053C86.5102 23.4384 87.4656 22.5847 88.6853 22.6863C89.8846 22.788 90.2302 23.7434 89.844 25.1663L89.8236 25.1866ZM92.9948 23.7434L91.6531 23.6214L90.84 26.6096C90.6571 27.2397 90.7994 27.5446 91.3076 27.5853C91.5312 27.5853 91.7548 27.5853 91.9784 27.5446L91.8971 27.8292C91.8767 27.9715 91.7548 28.0732 91.6125 28.0732C91.4092 28.0935 91.2262 28.0935 91.023 28.0732C90.1692 27.9919 89.9659 27.5243 90.2302 26.5486L91.5108 21.8732L91.8971 21.9139C92.0597 21.9139 92.1003 21.9952 92.0597 22.1578L91.7954 23.0929L92.9135 23.1945C93.0761 23.1945 93.1167 23.2758 93.0761 23.4384L92.9948 23.7434ZM77.6676 24.4955C77.2611 25.9591 77.6066 26.5079 78.3588 26.5689C78.8466 26.6096 79.2329 26.4266 79.6598 26.142L80.5948 22.7066C80.3712 22.6253 80.1273 22.5643 79.863 22.544C78.745 22.4424 78.0539 22.9912 77.6473 24.4955H77.6676ZM79.5784 16.405C79.7207 14.7991 79.3752 14.0064 78.5824 13.9454C78.0742 13.9047 77.6473 14.1283 77.1798 14.5146L76.8545 18.3158C77.1391 18.4378 77.4237 18.5191 77.7286 18.5395C78.8873 18.6411 79.4361 17.9499 79.5581 16.405H79.5784ZM82.2007 24.7801C81.8145 26.203 82.1601 26.7519 82.9122 26.8128C83.4001 26.8535 83.7863 26.6706 84.2132 26.386L85.1279 23.0725C84.9043 22.9912 84.6604 22.9302 84.3961 22.9099C83.2781 22.8083 82.5869 23.3571 82.2007 24.7801ZM70.5123 21.6903C70.0244 21.6496 69.6382 21.8325 69.2113 22.1171L68.2762 25.5525C68.4998 25.6338 68.7437 25.6948 69.008 25.7151C70.126 25.8168 70.8172 25.2679 71.2237 23.7637C71.6303 22.3001 71.2847 21.7512 70.5326 21.6903H70.5123ZM88.5227 23.1539C87.7909 23.0929 87.2217 23.5604 86.8151 24.7801L89.2341 24.9834C89.539 23.906 89.3154 23.2148 88.543 23.1539H88.5227Z" fill="#0065A6"/>
<path id="Vector_2" d="M33.2311 3.65879C34.0239 3.92305 34.8573 4.14665 35.6705 4.3296C35.8331 3.0083 36.016 1.95126 36.2193 1.1788C36.3006 0.833229 36.199 0.46733 35.9144 0.223396C35.6298 -0.000208911 35.2639 -0.0611922 34.9387 0.10143C33.719 0.650279 31.7675 1.26011 29.1859 1.97158C26.5839 2.68306 23.2908 3.39453 18.2496 3.82141C13.2083 4.24829 9.83387 4.106 7.15061 3.82141C4.48767 3.55715 2.45489 3.29289 1.17425 2.94732C0.828673 2.84568 0.462774 2.96764 0.21884 3.25223C-0.00476491 3.53682 -0.0657482 3.92305 0.0765461 4.24829C0.625396 5.46796 1.23523 7.41942 1.9467 10.001C2.65817 12.5827 3.36964 15.8961 3.79653 20.9374C4.22341 25.9787 4.08111 29.3531 3.79653 32.0363C3.53227 34.6993 3.24768 36.7321 2.92243 38.033C2.84112 38.3786 2.94276 38.7445 3.20702 38.9884C3.49161 39.212 3.85751 39.273 4.20308 39.1307C5.42275 38.5819 7.37421 37.972 9.95584 37.2606C12.5578 36.5491 15.8509 35.8376 20.8922 35.4107C25.9335 34.9839 29.3079 35.1262 31.9911 35.4107C32.296 35.4514 32.601 35.4717 32.8855 35.5124C33.0482 34.7399 33.2311 33.8658 33.3937 32.9104C33.8816 30.2678 34.3085 26.9137 34.3085 21.8521C34.3085 16.7905 33.8816 13.4364 33.3937 10.7938C32.9059 8.15122 32.4587 6.1591 32.0115 4.89878C31.8895 4.55321 31.9708 4.18731 32.2351 3.92305C32.4993 3.65879 32.8652 3.57748 33.2108 3.69944L33.2311 3.65879ZM11.9073 13.9446L12.4765 20.6528L11.1145 20.7748C10.7893 20.7951 10.6673 20.6528 10.6267 20.3479L10.0575 13.6397L11.4194 13.5178C11.7447 13.4974 11.8666 13.6397 11.9073 13.9446ZM11.1958 10.7938C11.5211 10.7735 11.643 10.9158 11.6837 11.2207L11.7853 12.4201L10.4234 12.542C10.0981 12.5623 9.97616 12.4201 9.93551 12.1151L9.83387 10.9158L11.1958 10.7938ZM9.44764 28.3367C9.02076 28.3773 8.57355 28.357 8.14667 28.2757C7.98404 28.2554 7.90273 28.1741 7.88241 28.0114V27.6862C8.32962 27.7878 8.81748 27.8082 9.28502 27.7878C10.1388 27.7269 10.5047 27.361 10.464 26.7105C10.403 26.0803 9.81354 25.8974 9.16305 25.6941C8.41093 25.4705 7.59782 25.2062 7.51651 24.2305C7.45552 23.4377 7.94339 22.7872 9.10207 22.6856C9.50863 22.6449 9.91518 22.6652 10.3014 22.7466C10.464 22.7669 10.5453 22.8482 10.5657 23.0108V23.3361C10.1591 23.2344 9.7119 23.1938 9.26469 23.2344C8.41093 23.3157 8.167 23.641 8.20765 24.1288C8.24831 24.7183 8.83781 24.9013 9.4883 25.1046C10.2608 25.3282 11.0942 25.5924 11.1755 26.6088C11.2568 27.5033 10.708 28.2554 9.46797 28.357L9.44764 28.3367ZM14.9361 22.8279L13.5742 22.9498L13.9807 27.8895L13.5539 27.9301C13.3709 27.9301 13.2896 27.8895 13.2896 27.7065L12.9034 23.0108L11.2975 23.1531V22.8482C11.2568 22.6652 11.2975 22.5839 11.4804 22.5839L15.1394 22.279V22.5839C15.1801 22.7669 15.1191 22.8482 14.9361 22.8482V22.8279ZM14.306 20.3072C13.9604 20.2259 13.8384 20.1649 13.8181 19.86L13.0457 10.6515L14.4076 10.5296C14.7329 10.5092 14.8548 10.6515 14.8955 10.9565L15.1394 13.8023C15.5866 13.2738 16.2168 12.9486 16.9079 12.8673C18.9001 12.7046 19.6522 14.2292 19.8148 16.201C20.0181 18.5794 19.144 20.1853 16.5014 20.4089C15.7696 20.4698 15.0378 20.4292 14.3263 20.3072H14.306ZM18.2292 27.6049C17.7414 27.6455 17.2535 27.6252 16.9283 27.5439C16.7656 27.5033 16.6843 27.4423 16.664 27.2796V26.9341C17.1112 27.0357 17.5787 27.0764 18.0666 27.0357C19.0627 26.9544 19.4286 26.6698 19.3676 25.7957L19.3269 25.2875C18.8797 25.4095 18.4325 25.5111 17.965 25.5518C16.481 25.6738 16.0948 25.1452 15.9932 24.0272L15.8306 22.1774L16.2574 22.1367C16.4404 22.1367 16.5217 22.1774 16.5217 22.3603L16.664 23.9662C16.7453 24.881 17.1315 25.0436 18.0666 24.9623C18.4732 24.9216 18.8594 24.8403 19.2456 24.7183L19.0017 21.9131L19.4489 21.8725C19.6319 21.8725 19.7132 21.9131 19.7132 22.0961L20.0181 25.6331C20.1197 26.7918 19.6522 27.4626 18.2089 27.5846L18.2292 27.6049ZM20.3027 10.0417L21.6646 9.91974C21.9899 9.89941 22.1118 10.0417 22.1525 10.3466L22.2541 11.546L20.8922 11.6679C20.5669 11.6883 20.445 11.546 20.4043 11.241L20.3027 10.0417ZM21.8882 12.6437C22.2135 12.6233 22.3354 12.7656 22.3761 13.0705L22.9453 19.7787L21.5833 19.9007C21.2581 19.921 21.1361 19.7787 21.0954 19.4738L20.5263 12.7656L21.8882 12.6437ZM24.0633 26.9747C23.6567 27.117 23.2502 27.1983 22.8233 27.2187C21.441 27.3406 21.1564 26.7918 21.0548 25.6738L20.7295 21.7708L21.1768 21.7302C21.3597 21.7302 21.4207 21.7708 21.441 21.9538L21.7459 25.6128C21.8272 26.5275 22.0915 26.6901 22.9453 26.6292C23.3925 26.5885 23.8397 26.4869 24.2666 26.3242V26.6698C24.3072 26.8528 24.2463 26.9137 24.0836 26.9747H24.0633ZM27.0515 26.3039C27.519 26.2633 27.9866 26.1413 28.4134 25.9787V26.3242C28.4541 26.4665 28.3728 26.5885 28.2305 26.6292C27.8239 26.7715 27.3971 26.8731 26.9702 26.8934C25.4659 27.0154 24.5715 26.2429 24.4089 24.2711C24.2463 22.3807 24.9374 21.3033 26.2994 21.2016C27.6207 21.1 28.3728 22.0554 28.5151 23.6613C28.5354 23.9662 28.4338 24.0882 28.1289 24.1085L25.1813 24.3524C25.3236 25.877 25.8928 26.4259 27.0515 26.3446V26.3039ZM26.2384 19.6161C25.6082 19.6771 24.9781 19.6567 24.3682 19.5144C24.1649 19.4535 24.043 19.2705 24.0226 19.0672L23.9413 18.1525C24.5308 18.2541 25.3033 18.3151 25.7912 18.2744C26.6043 18.2135 26.9295 17.9289 26.8889 17.4817C26.8482 17.0141 26.3197 16.8109 25.6895 16.6076C24.7748 16.2823 23.6771 15.8961 23.5754 14.5138C23.4738 13.3958 24.1649 12.3997 25.8521 12.2574C26.4213 12.1964 27.0108 12.2574 27.5597 12.3591C27.763 12.4201 27.9052 12.603 27.9256 12.8063L28.0069 13.721C27.4377 13.5991 26.8685 13.5584 26.2994 13.5787C25.4659 13.6397 25.3033 13.9243 25.344 14.2496C25.3846 14.6155 25.8521 14.7781 26.4213 14.9814C27.3564 15.3066 28.5557 15.7132 28.6777 17.2377C28.7997 18.5794 27.763 19.4941 26.2384 19.6161ZM32.1538 21.222V21.5472C31.7472 21.4456 31.3 21.4049 30.8528 21.4456C29.999 21.5269 29.7551 21.8521 29.7957 22.34C29.8364 22.9295 30.4259 23.1125 31.0764 23.3157C31.8488 23.5393 32.6823 23.8036 32.7636 24.82C32.8449 25.7144 32.296 26.4665 31.0561 26.5682C30.6292 26.6088 30.182 26.5885 29.7551 26.5072C29.5925 26.4869 29.5111 26.4056 29.4908 26.2429V25.9177C29.938 26.0193 30.4259 26.0397 30.8934 26.0193C31.7472 25.9583 32.1131 25.5924 32.0724 24.942C32.0115 24.3118 31.422 24.1288 30.7715 23.9256C30.0193 23.702 29.2062 23.4377 29.1249 22.462C29.0639 21.6692 29.5518 21.0187 30.7105 20.9171C31.117 20.8764 31.5236 20.8967 31.9098 20.978C32.0724 20.9984 32.1537 21.0797 32.1741 21.2423L32.1538 21.222ZM26.34 21.7302C25.5269 21.7912 25.0797 22.401 25.1203 23.8036L27.8036 23.58C27.702 22.3603 27.1938 21.6692 26.34 21.7302ZM17.8837 16.6889C17.7414 15.083 17.2738 14.3512 16.5014 14.4325C15.9932 14.4732 15.607 14.7781 15.2207 15.2253L15.546 19.0266C15.8306 19.1079 16.1355 19.1282 16.4404 19.1079C17.5991 19.0062 18.026 18.2541 17.8837 16.6889Z" fill="#6AB023"/>
<path id="Vector_3" d="M67.4426 35.4318C67.28 34.6593 67.0971 33.7853 66.9345 32.8298C66.4466 30.1872 66.0197 26.8332 66.0197 21.7716C66.0197 16.7099 66.4466 13.3559 66.9345 10.7133C67.4223 8.07065 67.8695 6.07853 68.3167 4.8182C68.4387 4.47263 68.3574 4.10673 68.0931 3.84247C67.8289 3.59854 67.463 3.51723 67.1174 3.6392C66.3043 3.90346 65.4912 4.12706 64.6577 4.31001C63.682 4.53362 62.5233 4.75722 61.2224 5.00116C58.5798 5.48902 55.2257 5.9159 50.1641 5.9159C45.1025 5.9159 41.7484 5.48902 39.1058 5.00116C37.7845 4.75722 36.6461 4.53362 35.6704 4.31001C34.8369 4.12706 34.0238 3.90346 33.2311 3.6392C32.8855 3.51723 32.5196 3.59854 32.2553 3.8628C31.9911 4.12706 31.9097 4.49296 32.0317 4.83853C32.4789 6.09885 32.9058 8.09097 33.414 10.7336C33.9019 13.3762 34.3287 16.7303 34.3287 21.7919C34.3287 26.8535 33.9019 30.2076 33.414 32.8502C33.2311 33.8056 33.0684 34.6593 32.9058 35.4521C32.6009 36.8344 32.3366 37.9524 32.0317 38.7452C31.9097 39.0908 31.9911 39.4567 32.235 39.721C32.4993 39.9649 32.8652 40.0462 33.2107 39.9446C34.471 39.4973 36.4632 39.0501 39.1058 38.5623C41.7484 38.0744 45.1025 37.6475 50.1641 37.6475C55.2257 37.6475 58.5798 38.0744 61.2224 38.5623C63.865 39.0501 65.8368 39.4973 67.0971 39.9446C67.4427 40.0665 67.8086 39.9852 68.0728 39.721C68.3371 39.4567 68.4184 39.0908 68.2964 38.7452C68.0118 37.9524 67.7272 36.8344 67.4426 35.4725V35.4318ZM40.9963 26.9958H39.2277C38.8212 26.9958 38.6586 26.7722 38.6586 26.3859V17.6653H40.4271C40.8336 17.6653 40.9963 17.8889 40.9963 18.2752V26.9958ZM40.9963 16.3034H39.2277C38.8212 16.3034 38.6586 16.0798 38.6586 15.6936V14.1283H40.4271C40.8336 14.1283 40.9963 14.3519 40.9963 14.7381V16.3034ZM46.2205 27.1381C45.2854 27.1381 44.1877 26.9958 43.4153 26.7518C42.9884 26.6299 42.8257 26.5282 42.8257 26.1014V14.1283H44.5943C45.0008 14.1283 45.1634 14.3519 45.1634 14.7381V18.4378C45.8139 17.8076 46.6677 17.4214 47.5418 17.4214C50.1437 17.4214 50.9365 19.4745 50.9365 22.0358C50.9365 25.1256 49.6355 27.1178 46.2002 27.1178L46.2205 27.1381ZM54.6565 27.0161H52.888C52.4814 27.0161 52.3188 26.7925 52.3188 26.4063V17.6857H54.0873C54.4939 17.6857 54.6565 17.9093 54.6565 18.2955V27.0161ZM54.6565 16.3237H52.888C52.4814 16.3237 52.3188 16.1001 52.3188 15.7139V14.1486H54.0873C54.4939 14.1486 54.6565 14.3722 54.6565 14.7585V16.3237ZM58.9457 27.1584C58.0309 27.1584 57.1975 27.0364 56.547 26.8332C56.303 26.7315 56.1404 26.4876 56.1608 26.203V25.024C56.9129 25.2273 57.9089 25.3899 58.5391 25.3899C59.6165 25.3899 60.0434 25.085 60.0434 24.4751C60.0434 23.8653 59.3725 23.5604 58.5798 23.1945C57.4414 22.6863 56.0591 22.0561 56.0591 20.247C56.0591 18.7834 57.0552 17.5637 59.2506 17.5637C60.0027 17.5637 60.7345 17.6653 61.4663 17.889C61.7306 17.9703 61.8729 18.2345 61.8729 18.5191V19.6981C61.1614 19.4745 60.4296 19.3525 59.6775 19.3322C58.6001 19.3322 58.3562 19.6575 58.3562 20.1047C58.3562 20.5925 58.9457 20.8365 59.6775 21.1617C60.8361 21.6699 62.3607 22.3407 62.3607 24.3125C62.3607 26.0607 60.9378 27.1178 58.9457 27.1178V27.1584ZM46.9116 19.3729C46.2408 19.3729 45.7123 19.7184 45.1634 20.2673V25.2273C45.5293 25.3492 45.9156 25.4305 46.3221 25.4305C47.8264 25.4305 48.4565 24.4955 48.4565 22.4627C48.4565 20.4299 47.928 19.3932 46.9116 19.3932V19.3729Z" fill="#E20026"/>
</g>
</svg>
