<?xml version="1.0" encoding="UTF-8"?>
<svg version="1.1" xmlns="http://www.w3.org/2000/svg" width="120" height="120">
<path d="M0 0 C0.99 0.66 1.98 1.32 3 2 C3.99 2 4.98 2 6 2 C6.495 2.495 6.495 2.495 7 3 C9.33297433 3.04092937 11.66705225 3.04241723 14 3 C14.495 4.485 14.495 4.485 15 6 C15.99 5.67 16.98 5.34 18 5 C18.495 7.475 18.495 7.475 19 10 C20.98 10.33 22.96 10.66 25 11 C25 11.99 25 12.98 25 14 C25.99 14.33 26.98 14.66 28 15 C28.1546875 16.175625 28.1546875 16.175625 28.3125 17.375 C28.77595022 20.33045181 28.77595022 20.33045181 32 22 C31.505 23.485 31.505 23.485 31 25 C31.99 25.66 32.98 26.32 34 27 C33.505 27.495 33.505 27.495 33 28 C33.44793109 32.65065613 33.44793109 32.65065613 35 37 C34.01 37.495 34.01 37.495 33 38 C33 39.32 33 40.64 33 42 C32.67 42.33 32.34 42.66 32 43 C31.95907063 45.33297433 31.95758277 47.66705225 32 50 C31.01 50.495 31.01 50.495 30 51 C30 51.66 30 52.32 30 53 C29.38125 53.20625 28.7625 53.4125 28.125 53.625 C25.15346355 55.54775888 24.86975341 57.66594527 24 61 C23.01 60.67 22.02 60.34 21 60 C21 60.99 21 61.98 21 63 C19.88625 63.0825 18.7725 63.165 17.625 63.25 C13.94246056 63.57873787 13.94246056 63.57873787 12.5625 66.0625 C12.2840625 67.0215625 12.2840625 67.0215625 12 68 C11.01 67.505 11.01 67.505 10 67 C9.34 67.66 8.68 68.32 8 69 C7.4225 68.835 6.845 68.67 6.25 68.5 C3.08463934 67.79658652 0.96669613 68.8537765 -2 70 C-2 69.34 -2 68.68 -2 68 C-2.66 68 -3.32 68 -4 68 C-4.33 68.66 -4.66 69.32 -5 70 C-5.556875 69.505 -6.11375 69.01 -6.6875 68.5 C-9.38162983 66.75245633 -10.85375007 66.73781251 -14 67 C-14 66.01 -14 65.02 -14 64 C-15.98 64.99 -15.98 64.99 -18 66 C-18.226875 65.21625 -18.45375 64.4325 -18.6875 63.625 C-19.78125 60.78125 -19.78125 60.78125 -22.625 59.6875 C-23.40875 59.460625 -24.1925 59.23375 -25 59 C-25 58.01 -25 57.02 -25 56 C-26.485 56.495 -26.485 56.495 -28 57 C-28.268125 55.906875 -28.53625 54.81375 -28.8125 53.6875 C-29.87663739 50.38307337 -30.34654664 49.05039578 -33 47 C-32.505 46.505 -32.505 46.505 -32 46 C-32.66 45.67 -33.32 45.34 -34 45 C-33.690625 43.39125 -33.690625 43.39125 -33.375 41.75 C-32.99841762 37.98417617 -33.13637115 37.06950635 -35 34 C-35 31 -35 31 -33.5 29.1875 C-31.54891897 26.3421735 -31.76981089 24.376107 -32 21 C-31.01 21 -30.02 21 -29 21 C-29.33 19.68 -29.66 18.36 -30 17 C-29.38125 16.773125 -28.7625 16.54625 -28.125 16.3125 C-25.38589791 14.62070165 -24.94975528 13.00755839 -24 10 C-23.34 10 -22.68 10 -22 10 C-21.34 9.01 -20.68 8.02 -20 7 C-18.33333333 6.66666667 -16.66666667 6.33333333 -15 6 C-14.34 5.01 -13.68 4.02 -13 3 C-10.375 1.8125 -10.375 1.8125 -8 1 C-7.67 1.33 -7.34 1.66 -7 2 C-4.66702567 2.04092937 -2.33294775 2.04241723 0 2 C0 1.34 0 0.68 0 0 Z M-21 19 C-21.66 21.31 -22.32 23.62 -23 26 C-18.38 26 -13.76 26 -9 26 C-10.010625 27.155 -11.02125 28.31 -12.0625 29.5 C-12.69542969 30.22832031 -13.32835937 30.95664062 -13.98046875 31.70703125 C-15.2965568 33.20131304 -16.63181941 34.67898864 -17.98828125 36.13671875 C-18.61089844 36.81347656 -19.23351562 37.49023438 -19.875 38.1875 C-20.44992188 38.79980469 -21.02484375 39.41210938 -21.6171875 40.04296875 C-23.2901951 42.41069985 -23.78835978 44.11525178 -24 47 C-22.27773504 50.24849977 -22.27773504 50.24849977 -19 51 C-16.18187044 51.12110727 -13.38925304 51.18815045 -10.5703125 51.203125 C-9.742966 51.20882507 -8.91561951 51.21452515 -8.0632019 51.22039795 C-6.31314368 51.22984023 -4.56306773 51.23637887 -2.81298828 51.24023438 C-0.14193569 51.24993847 2.52834675 51.28096785 5.19921875 51.3125 C6.90103711 51.31903058 8.60286096 51.32428084 10.3046875 51.328125 C11.49866653 51.3466452 11.49866653 51.3466452 12.71676636 51.36553955 C18.48688533 51.34247301 21.82225894 50.17774106 26 46 C26 45.01 26 44.02 26 43 C12.14 42.505 12.14 42.505 -2 42 C0.64 39.36 3.28 36.72 6 34 C10.46634183 29.07945391 14.09706841 24.46410423 18 19 C5.13 19 -7.74 19 -21 19 Z " fill="#107579" transform="translate(60,25)"/>
<path d="M0 0 C2.31 0.66 4.62 1.32 7 2 C6.690625 2.9075 6.38125 3.815 6.0625 4.75 C4.52310987 10.04506536 4.34179698 15.52225363 4 21 C2.5 19.6875 2.5 19.6875 1 18 C1 17.01 1 16.02 1 15 C-0.98 15.66 -2.96 16.32 -5 17 C-4.70351563 16.30519531 -4.40703125 15.61039063 -4.1015625 14.89453125 C-2.94421163 11.85340716 -2.13934996 8.84912937 -1.375 5.6875 C-1.11460938 4.61886719 -0.85421875 3.55023438 -0.5859375 2.44921875 C-0.39257812 1.64097656 -0.19921875 0.83273438 0 0 Z " fill="#187A7F" transform="translate(45,98)"/>
<path d="M0 0 C1.53647825 2.30471737 2.66226759 4.33093476 3.8125 6.8125 C5.74063723 10.74881035 8.07385893 13.74873214 11 17 C8.69 16.34 6.38 15.68 4 15 C3.67 17.31 3.34 19.62 3 22 C1.03066335 18.22762623 -0.42247124 14.32411588 -1.90234375 10.33984375 C-2.99572283 8.00911753 -4.07259346 6.67481195 -6 5 C-4.62308038 2.24616077 -2.63279958 1.48516899 0 0 Z " fill="#197B80" transform="translate(82,93)"/>
<path d="M0 0 C2.12060514 2.05179495 3.97624111 4.19329462 5.8125 6.5 C8.50382919 9.69047295 11.08782032 11.4164987 15 13 C14.67 13.66 14.34 14.32 14 15 C13.34 15 12.68 15 12 15 C11.67 16.65 11.34 18.3 11 20 C10.05125 19.113125 9.1025 18.22625 8.125 17.3125 C3.85760383 13.62343678 -0.89330071 11.32216105 -6 9 C-6 8.67 -6 8.34 -6 8 C-3.69 8 -1.38 8 1 8 C0.67 5.36 0.34 2.72 0 0 Z " fill="#15787E" transform="translate(16,19)"/>
<path d="M0 0 C0.71285156 0.33773437 1.42570313 0.67546875 2.16015625 1.0234375 C7.38656437 3.45726954 12.39584643 5.6300958 18 7 C17.67 9.31 17.34 11.62 17 14 C16.46632813 13.79503906 15.93265625 13.59007812 15.3828125 13.37890625 C9.58604428 11.282843 4.14267934 10.37189499 -2 10 C-0.74458443 7.48916886 0.50063488 7.12874554 3 6 C2.2575 5.071875 2.2575 5.071875 1.5 4.125 C0 2 0 2 0 0 Z " fill="#16797E" transform="translate(4,39)"/>
<path d="M0 0 C0.78503906 0.2165625 1.57007812 0.433125 2.37890625 0.65625 C8.06146019 2.1623011 13.11655525 3.40114396 19 3 C19 3.66 19 4.32 19 5 C17.35 5.66 15.7 6.32 14 7 C14.99 8.98 15.98 10.96 17 13 C16.34 12.731875 15.68 12.46375 15 12.1875 C14.01 11.795625 13.02 11.40375 12 11 C11.37222656 10.74734375 10.74445313 10.4946875 10.09765625 10.234375 C6.07098072 8.65771126 2.3216783 7.54020979 -2 7 C-1.34 4.69 -0.68 2.38 0 0 Z " fill="#177A7F" transform="translate(99,68)"/>
<path d="M0 0 C0 3.51716303 -0.82445585 4.37121748 -3 7 C-2.195625 7.28875 -1.39125 7.5775 -0.5625 7.875 C2 9 2 9 3 11 C2.14277344 10.91621094 1.28554687 10.83242188 0.40234375 10.74609375 C-5.59931736 10.21156024 -11.08421487 9.76181241 -17 11 C-17.33 8.69 -17.66 6.38 -18 4 C-17.28714844 3.96261719 -16.57429688 3.92523438 -15.83984375 3.88671875 C-9.9006577 3.47904918 -5.30878253 2.71337774 0 0 Z " fill="#177A7F" transform="translate(117,48)"/>
<path d="M0 0 C0.33 0 0.66 0 1 0 C1.25523438 0.97839844 1.25523438 0.97839844 1.515625 1.9765625 C3.01655349 7.38948546 4.63197096 11.50929461 8 16 C8.33 16.66 8.66 17.32 9 18 C6.69 18.99 4.38 19.98 2 21 C1.69707031 20.34773438 1.39414062 19.69546875 1.08203125 19.0234375 C-1.46004706 13.72027105 -4.01380014 9.32787414 -8 5 C-3.25 5.875 -3.25 5.875 -1 7 C-0.67 4.69 -0.34 2.38 0 0 Z " fill="#15787E" transform="translate(35,6)"/>
<path d="M0 0 C1.02635644 3.07906933 1.07115249 5.09729671 1 8.3125 C0.95732422 12.33469271 1.14591705 16.04986634 2 20 C-0.64 20 -3.28 20 -6 20 C-5.9071875 18.3603125 -5.9071875 18.3603125 -5.8125 16.6875 C-5.78296371 11.20359577 -7.39424878 6.19957538 -9 1 C-8.1028125 1.7734375 -8.1028125 1.7734375 -7.1875 2.5625 C-6.465625 3.036875 -5.74375 3.51125 -5 4 C-1.72226496 3.24849977 -1.72226496 3.24849977 0 0 Z " fill="#15787D" transform="translate(57,1)"/>
<path d="M0 0 C0.40089844 0.38671875 0.80179687 0.7734375 1.21484375 1.171875 C5.75016436 5.32668119 10.27749121 7.79404423 16 10 C15.67 10.66 15.34 11.32 15 12 C12.4375 12.625 12.4375 12.625 10 13 C10 14.65 10 16.3 10 18 C8.948125 16.9171875 8.948125 16.9171875 7.875 15.8125 C5.95461542 13.88665978 3.97531006 12.10250503 1.875 10.375 C-0.21421265 8.64912868 -2.14228039 6.96092626 -4 5 C-3.01 4.34 -2.02 3.68 -1 3 C-0.67 2.01 -0.34 1.02 0 0 Z " fill="#17797F" transform="translate(93,82)"/>
<path d="M0 0 C0.33 0 0.66 0 1 0 C1.07347656 1.10408203 1.07347656 1.10408203 1.1484375 2.23046875 C1.22320312 3.20628906 1.29796875 4.18210937 1.375 5.1875 C1.44460937 6.15042969 1.51421875 7.11335938 1.5859375 8.10546875 C1.88277553 11.02677636 1.88277553 11.02677636 3.1015625 13.67578125 C4 16 4 16 3 19 C1.68 18.01 0.36 17.02 -1 16 C-2.485 18.475 -2.485 18.475 -4 21 C-4.66 20.67 -5.32 20.34 -6 20 C-5.75636719 19.14535156 -5.75636719 19.14535156 -5.5078125 18.2734375 C-4.24256128 12.60900512 -4.84385003 6.6362311 -6 1 C-4.7934375 1.0309375 -4.7934375 1.0309375 -3.5625 1.0625 C-1.06645115 1.29633621 -1.06645115 1.29633621 0 0 Z " fill="#16797E" transform="translate(67,99)"/>
<path d="M0 0 C3 3.75 3 3.75 3 6 C4.175625 5.2265625 4.175625 5.2265625 5.375 4.4375 C6.674375 3.7259375 6.674375 3.7259375 8 3 C8.66 3.33 9.32 3.66 10 4 C9.401875 4.78375 8.80375 5.5675 8.1875 6.375 C5.37853954 10.53346103 4.25449207 15.19111372 3 20 C0.69 19.67 -1.62 19.34 -4 19 C-3.525625 17.906875 -3.05125 16.81375 -2.5625 15.6875 C-0.61291255 10.56523487 -0.28970046 5.43438112 0 0 Z " fill="#14787D" transform="translate(71,2)"/>
<path d="M0 0 C1.30048841 2.60097682 1.56471422 5.13955062 2 8 C0.3603125 7.9071875 0.3603125 7.9071875 -1.3125 7.8125 C-6.79640423 7.78296371 -11.80042462 9.39424878 -17 11 C-16.01 9.02 -15.02 7.04 -14 5 C-15.32 3.68 -16.64 2.36 -18 1 C-16.95199219 1.01160156 -15.90398438 1.02320313 -14.82421875 1.03515625 C-13.44531428 1.04453655 -12.06640789 1.0536365 -10.6875 1.0625 C-9.99720703 1.07087891 -9.30691406 1.07925781 -8.59570312 1.08789062 C-5.4516975 1.10307906 -3.00579981 1.00193327 0 0 Z " fill="#15787D" transform="translate(19,61)"/>
<path d="M0 0 C0.433125 0.474375 0.86625 0.94875 1.3125 1.4375 C3.02309613 3.23686957 3.02309613 3.23686957 6 4 C6 4.66 6 5.32 6 6 C5.0925 6.680625 4.185 7.36125 3.25 8.0625 C-0.77007625 11.22521401 -2.26116804 15.30515371 -4 20 C-4.33 20 -4.66 20 -5 20 C-5 18.02 -5 16.04 -5 14 C-7.64 14.33 -10.28 14.66 -13 15 C-11.12332654 13.0190669 -9.24292561 11.42011323 -7.0625 9.75 C-3.66126848 6.97642717 -1.98109358 3.88599125 0 0 Z " fill="#16797E" transform="translate(32,89)"/>
<path d="M0 0 C1.65 1.65 3.3 3.3 5 5 C3.03207164 6.96792836 1.53243181 7.85283135 -0.9375 9.0625 C-1.62714844 9.40410156 -2.31679688 9.74570313 -3.02734375 10.09765625 C-5 11 -5 11 -8 12 C-9.20882096 14.00016466 -9.20882096 14.00016466 -10 16 C-11.04449911 12.86650268 -10.93423645 12.01031744 -10 9 C-11.65 9 -13.3 9 -15 9 C-15.33 8.34 -15.66 7.68 -16 7 C-15.02160156 6.74476562 -15.02160156 6.74476562 -14.0234375 6.484375 C-8.63277496 4.98961902 -4.45246128 3.39793098 0 0 Z " fill="#16797E" transform="translate(22,77)"/>
<path d="M0 0 C0.33 0 0.66 0 1 0 C1 2.31 1 4.62 1 7 C4.465 6.505 4.465 6.505 8 6 C5.84327206 8.15672794 3.68391633 10.30818157 1.5 12.4375 C-0.85157222 14.84786153 -2.94467736 17.33569287 -5 20 C-5.33 19.01 -5.66 18.02 -6 17 C-8.00016466 15.79117904 -8.00016466 15.79117904 -10 15 C-9.52949219 14.50371094 -9.05898437 14.00742187 -8.57421875 13.49609375 C-4.62393472 9.18594947 -1.95387647 5.51682767 0 0 Z " fill="#16797E" transform="translate(92,11)"/>
<path d="M0 0 C0.33 0.66 0.66 1.32 1 2 C0.67 2.99 0.34 3.98 0 5 C1.98 5.66 3.96 6.32 6 7 C3.11386913 8.92408724 0.38220568 9.96614795 -2.859375 11.13671875 C-6.11060092 12.44788833 -9.00220101 14.18882978 -12 16 C-12.309375 15.21625 -12.61875 14.4325 -12.9375 13.625 C-13.92875038 11.07669872 -13.92875038 11.07669872 -15 9 C-13.824375 8.62875 -12.64875 8.2575 -11.4375 7.875 C-6.77817643 6.15578435 -3.5386448 3.41700389 0 0 Z " fill="#15797E" transform="translate(108,28)"/>
<path d="M0 0 C3.82669043 3.42388092 5.72278474 6.00724943 7 11 C5.68 10.34 4.36 9.68 3 9 C2.34 10.32 1.68 11.64 1 13 C-0.97387813 8.23947038 -1.0070238 5.03511899 0 0 Z " fill="#1B7D82" transform="translate(73,101)"/>
<path d="M0 0 C2.49505962 2.49505962 2.35948376 3.67328888 2.625 7.125 C2.69976562 8.03507812 2.77453125 8.94515625 2.8515625 9.8828125 C2.90054688 10.58148438 2.94953125 11.28015625 3 12 C2.34 12 1.68 12 1 12 C0.34 11.34 -0.32 10.68 -1 10 C-1.66 10.66 -2.32 11.32 -3 12 C-2.88541307 10.56163249 -2.75790884 9.12429034 -2.625 7.6875 C-2.55539063 6.88699219 -2.48578125 6.08648437 -2.4140625 5.26171875 C-2 3 -2 3 0 0 Z " fill="#1C7D82" transform="translate(56,103)"/>
<path d="M0 0 C5.01113235 1.4317521 6.94469549 3.98445693 10 8 C8.68 7.67 7.36 7.34 6 7 C5.67 8.32 5.34 9.64 5 11 C1.7089159 7.39042389 0.45336079 4.87362847 0 0 Z " fill="#1B7C82" transform="translate(88,93)"/>
<path d="M0 0 C-1.20842856 4.43090471 -2.51668565 6.98112756 -6 10 C-6.66 9.67 -7.32 9.34 -8 9 C-8 8.01 -8 7.02 -8 6 C-8.99 5.67 -9.98 5.34 -11 5 C-3.74193548 0 -3.74193548 0 0 0 Z " fill="#1C7D82" transform="translate(27,88)"/>
<path d="M0 0 C8.57142857 0.71428571 8.57142857 0.71428571 12 4 C8.93753253 5.78409802 6.77920727 6.22880021 3.25 6.125 C2.45078125 6.10695313 1.6515625 6.08890625 0.828125 6.0703125 C0.22484375 6.04710937 -0.3784375 6.02390625 -1 6 C0.32 5.34 1.64 4.68 3 4 C2.01 2.68 1.02 1.36 0 0 Z " fill="#187A80" transform="translate(5,53)"/>
<path d="M0 0 C0.99 0.495 0.99 0.495 2 1 C2 1.99 2 2.98 2 4 C2.66 4 3.32 4 4 4 C4.66 2.68 5.32 1.36 6 0 C5.91253716 1.43861294 5.80434652 2.87597508 5.6875 4.3125 C5.62949219 5.11300781 5.57148437 5.91351563 5.51171875 6.73828125 C4.91793306 9.36272334 4.04219706 10.30820672 2 12 C-0.60018816 8.09971775 -0.15085514 4.52565431 0 0 Z " fill="#177A7F" transform="translate(61,5)"/>
<path d="M0 0 C4.54805635 -0.17835515 7.8794254 0.00214565 12 2 C11.67 2.66 11.34 3.32 11 4 C10.01 3.67 9.02 3.34 8 3 C8.66 4.65 9.32 6.3 10 8 C4.98886765 6.5682479 3.05530451 4.01554307 0 0 Z " fill="#1A7C81" transform="translate(98,80)"/>
<path d="M0 0 C-1.485 1.485 -1.485 1.485 -3 3 C-1.68 3.33 -0.36 3.66 1 4 C-2.82989106 5.80230168 -5.78121808 6.19622241 -10 6 C-10 5.01 -10 4.02 -10 3 C-3.375 -1.125 -3.375 -1.125 0 0 Z " fill="#177A7F" transform="translate(112,42)"/>
<path d="M0 0 C3.91841827 1.30613942 6.32640809 2.83129848 9 6 C9 6.66 9 7.32 9 8 C0.42857143 7.28571429 0.42857143 7.28571429 -3 4 C-1.35 4 0.3 4 2 4 C1.34 2.68 0.68 1.36 0 0 Z " fill="#16797F" transform="translate(12,33)"/>
<path d="M0 0 C4.0042343 3.49087093 5.62671065 5.64951939 6 11 C1.43041625 9.02677065 -1.13463296 7.07763771 -4 3 C-1.525 3.495 -1.525 3.495 1 4 C0.67 2.68 0.34 1.36 0 0 Z " fill="#187B80" transform="translate(26,17)"/>
<path d="M0 0 C0.33 1.32 0.66 2.64 1 4 C2.32 3.67 3.64 3.34 5 3 C3.64978174 7.41889613 1.73884332 9.34345343 -2 12 C-3.15957207 8.52128379 -2.77456651 7.65780355 -1.5625 4.3125 C-1.13130859 3.10013672 -1.13130859 3.10013672 -0.69140625 1.86328125 C-0.46324219 1.24839844 -0.23507813 0.63351562 0 0 Z " fill="#1B7C81" transform="translate(82,10)"/>
<path d="M0 0 C2 2 2 2 2.1953125 4.3828125 C2.17210937 5.28773437 2.14890625 6.19265625 2.125 7.125 C2.10695313 8.03507813 2.08890625 8.94515625 2.0703125 9.8828125 C2.04710937 10.58148438 2.02390625 11.28015625 2 12 C1.34 12 0.68 12 0 12 C-1.65 9.03 -3.3 6.06 -5 3 C-4.01 3 -3.02 3 -2 3 C-1.34 2.01 -0.68 1.02 0 0 Z " fill="#177A7F" transform="translate(45,7)"/>
<path d="M0 0 C0.33 0.66 0.66 1.32 1 2 C0.67 2.66 0.34 3.32 0 4 C1.65 3.67 3.3 3.34 5 3 C1.50912907 7.0042343 -0.64951939 8.62671065 -6 9 C-4.68775452 5.06326356 -3.08089673 2.77280706 0 0 Z " fill="#1D7D83" transform="translate(99,23)"/>
<path d="M0 0 C1.21236328 0.01353516 1.21236328 0.01353516 2.44921875 0.02734375 C3.37154297 0.04474609 3.37154297 0.04474609 4.3125 0.0625 C0.88861908 3.88919043 -1.69474943 5.78528474 -6.6875 7.0625 C-6.0275 5.7425 -5.3675 4.4225 -4.6875 3.0625 C-5.6775 2.4025 -6.6675 1.7425 -7.6875 1.0625 C-4.80538698 0.10179566 -2.98899956 -0.04331883 0 0 Z " fill="#177A7F" transform="translate(14.6875,72.9375)"/>
<path d="M0 0 C0.91007812 0.00902344 1.82015625 0.01804688 2.7578125 0.02734375 C3.45648438 0.03894531 4.15515625 0.05054688 4.875 0.0625 C3.39 1.5475 3.39 1.5475 1.875 3.0625 C2.535 3.3925 3.195 3.7225 3.875 4.0625 C3.545 4.7225 3.215 5.3825 2.875 6.0625 C-0.425 5.0725 -3.725 4.0825 -7.125 3.0625 C-7.125 2.4025 -7.125 1.7425 -7.125 1.0625 C-4.60024538 -0.19987731 -2.81299534 -0.03606404 0 0 Z " fill="#197B80" transform="translate(110.125,61.9375)"/>
<path d="M0 0 C0.36923077 6.4 0.36923077 6.4 -1.5 9.4375 C-1.995 9.953125 -2.49 10.46875 -3 11 C-3 9.68 -3 8.36 -3 7 C-5.475 8.485 -5.475 8.485 -8 10 C-6.95558375 6.6768574 -4.14711476 0 0 0 Z " fill="#197B80" transform="translate(40,99)"/>
<path d="M0 0 C0.66 0.33 1.32 0.66 2 1 C2 1.99 2 2.98 2 4 C0.02 4.33 -1.96 4.66 -4 5 C-4 4.34 -4 3.68 -4 3 C-2 1.375 -2 1.375 0 0 Z " fill="#14787D" transform="translate(97,27)"/>
<path d="" fill="#348D91" transform="translate(0,0)"/>
<path d="" fill="#348D91" transform="translate(0,0)"/>
<path d="" fill="#4A999F" transform="translate(0,0)"/>
<path d="" fill="#529DA1" transform="translate(0,0)"/>
</svg>
